<?xml version="1.0" encoding="utf-8"?>
<!-- Generator: Adobe Illustrator 25.3.1, SVG Export Plug-In . SVG Version: 6.00 Build 0)  -->
<svg version="1.1" id="Layer_1" xmlns="http://www.w3.org/2000/svg" xmlns:xlink="http://www.w3.org/1999/xlink" x="0px" y="0px"
	 viewBox="0 0 225 30" style="enable-background:new 0 0 225 30;" xml:space="preserve">
<style type="text/css">
	.st0{fill:#FFFFFF;}
	.st1{fill:#DDDDDD;}
</style>
<g>
	<g>
		<polygon class="st0" points="66.52,0.47 72.28,0.47 79.05,20.99 76.12,29.55 		"/>
		<polygon class="st0" points="0.38,0.47 6.14,0.47 12.9,20.97 9.98,29.55 		"/>
		<polygon class="st0" points="23.83,12.13 20.9,20.69 23.76,29.55 26.69,20.99 		"/>
		<polygon class="st0" points="209.25,6.23 211.22,0.47 187.22,0.47 185.25,6.23 		"/>
		<polygon class="st0" points="216.98,0.47 215,6.23 222.65,6.23 224.62,0.47 		"/>
		<polygon class="st0" points="131.27,23.8 129.3,29.55 145.18,29.55 147.15,23.8 		"/>
		<polygon class="st0" points="89.97,12.13 87.99,17.88 101.84,17.88 103.82,12.13 		"/>
		<polygon class="st0" points="86.13,23.8 84.16,29.55 98.01,29.55 99.98,23.8 		"/>
		<polygon class="st0" points="37.43,12.13 35.45,17.89 49.56,17.89 51.53,12.13 		"/>
		<polygon class="st0" points="39.48,0.47 31.75,6.23 53.55,6.23 55.52,0.47 		"/>
		<polygon class="st0" points="33.43,23.8 31.46,29.55 45.56,29.55 47.54,23.8 		"/>
		<polygon class="st0" points="185.39,12.13 183.42,17.88 197.27,17.88 199.24,12.13 		"/>
		<polygon class="st0" points="163.29,29.53 171.02,23.76 155.29,23.8 153.33,29.53 		"/>
		<polygon class="st0" points="163.3,0.47 155.56,6.21 171.27,6.23 173.24,0.47 		"/>
		<polygon class="st0" points="123.67,6.23 125.64,0.47 115.9,0.47 113.93,6.23 		"/>
		<polygon class="st0" points="121.65,12.13 111.91,12.13 109.93,17.88 119.68,17.88 		"/>
		<polygon class="st0" points="91.83,0.47 84.11,6.23 106.07,6.23 108.04,0.47 		"/>
		<polygon class="st0" points="64.1,0.49 61.17,9.05 64.13,18.02 69.89,18.02 		"/>
	</g>
	<g>
		<polygon class="st1" points="115.9,0.47 105.94,29.55 100.18,29.55 108.17,6.23 		"/>
		<polygon class="st1" points="89.86,6.23 81.87,29.55 76.11,29.55 84.11,6.23 		"/>
		<polygon class="st1" points="133.5,0.47 139.26,0.47 129.3,29.55 125.51,23.8 		"/>
		<polygon class="st1" points="161.31,6.23 153.33,29.53 149.55,23.76 155.56,6.21 		"/>
		<polygon class="st1" points="173.25,0.45 177.04,6.2 171.02,23.76 165.26,23.79 		"/>
		<polygon class="st1" points="187.22,0.47 177.26,29.55 171.5,29.55 179.49,6.23 		"/>
		<polygon class="st1" points="211.22,0.47 215,6.23 207.01,29.55 201.26,29.55 		"/>
		<polygon class="st1" points="16.87,9.3 22.62,9.3 15.74,29.55 9.98,29.55 		"/>
		<polygon class="st1" points="37.5,6.23 29.51,29.55 23.76,29.55 31.75,6.23 		"/>
		<polygon class="st1" points="58.36,0.47 64.11,0.47 54.15,29.55 48.39,29.55 		"/>
		<polygon class="st1" points="125.64,0.47 129.43,6.23 127.41,12.13 121.65,12.13 125.43,17.88 121.44,29.55 115.68,29.55 		"/>
		<polygon class="st1" points="69.89,18.02 60.58,18.02 58.61,23.77 66.03,23.77 		"/>
	</g>
</g>
</svg>
